<svg viewBox="0 0 1920 1080" version="1.1" xmlns="http://www.w3.org/2000/svg" xmlns:xlink="http://www.w3.org/1999/xlink" id="wdka" preserveAspectRatio="xMidYMid slice" class="is-active">
  <path fill="white" d="M0,0C0,0,1920,0,1920,0C1920,0,1920,1080,1920,1080C1920,1080,0,1080,0,1080C0,1080,0,0,0,0C0,0,0,0,0,0M1117,1.5349999999999966C1117,1.5349999999999966,804.22,1.535000000000025,804.22,1.535000000000025C804.22,1.535000000000025,683,745.68,683,745.68C683,745.68,1684.895,981,1684.895,981C1684.895,981,1918.933,676.2950000000001,1918.933,676.2950000000001C1918.933,676.2950000000001,1919,1,1919,1C1919,1,1117,1.5349999999999966,1117,1.5349999999999966C1117,1.5349999999999966,1117,1.5349999999999966,1117,1.5349999999999966"></path>
  <defs></defs>
</svg>